<?xml version="1.0" encoding="iso-8859-1"?>
<!-- Generator: Adobe Illustrator 16.0.0, SVG Export Plug-In . SVG Version: 6.00 Build 0)  -->
<!DOCTYPE svg PUBLIC "-//W3C//DTD SVG 1.1//EN" "http://www.w3.org/Graphics/SVG/1.1/DTD/svg11.dtd">
<svg version="1.1" id="Capa_1" xmlns="http://www.w3.org/2000/svg" xmlns:xlink="http://www.w3.org/1999/xlink" x="0px" y="0px"
	 width="225.534px" height="225.533px" viewBox="0 0 225.534 225.533" style="enable-background:new 0 0 225.534 225.533;"
	 xml:space="preserve">
<g>
	<path d="M62.794,69.752c0-1.291,1.042-2.332,2.326-2.332h1.796c-0.624-1.386-1.108-2.731-1.392-4.004
		c-0.697-2.131-1.102-4.563-1.102-7.027c0-8.549,4.652-16.435,12.139-20.582c8.912-4.877,20.478-3.251,27.654,3.654
		c7.146-6.905,18.758-8.519,27.639-3.654c7.489,4.159,12.147,12.039,12.147,20.588c0,2.463-0.396,4.901-1.175,7.252
		c-3.751,16.861-35.993,37.293-37.375,38.155c-0.387,0.234-0.804,0.353-1.236,0.353c-0.423,0-0.859-0.119-1.227-0.353
		c-0.655-0.414-16.1-10.16-27.048-21.732c-0.892-0.929-0.855-2.405,0.085-3.285c0.935-0.893,2.415-0.85,3.285,0.094
		c8.805,9.289,21.02,17.625,24.905,20.183c5.918-3.896,31.128-21.175,34.142-34.65c0.664-2.101,0.986-4.046,0.986-6.016
		c0-6.854-3.738-13.174-9.742-16.499c-7.782-4.265-17.954-2.319-23.583,4.485c-0.436,0.53-1.102,0.84-1.791,0.84l0,0
		c-0.685,0-1.352-0.305-1.787-0.84c-5.626-6.759-15.844-8.732-23.614-4.479c-6.004,3.319-9.739,9.645-9.739,16.499
		c0,1.964,0.323,3.915,0.928,5.806c0.387,1.702,1.142,3.434,2.125,5.224h11.042l3.574-5.991c0.411-0.691,1.154-1.124,1.952-1.142
		c0.012,0,0.031,0,0.042,0c0.786,0,1.528,0.393,1.952,1.059l5.508,8.476l6.421-17.385c0.338-0.916,1.203-1.522,2.189-1.522l0,0
		c0.971,0,1.845,0.606,2.189,1.516l5.586,14.977h9.734c1.284,0,2.326,1.041,2.326,2.332s-1.042,2.332-2.326,2.332h-11.338
		c-0.971,0-1.851-0.612-2.195-1.516l-3.958-10.62l-5.855,15.859c-0.304,0.822-1.053,1.406-1.927,1.507
		c-0.088,0.006-0.167,0.013-0.262,0.013c-0.779,0-1.516-0.393-1.945-1.06l-5.998-9.234l-2.338,3.915
		c-0.423,0.707-1.179,1.142-1.995,1.142H65.139C63.836,72.084,62.794,71.043,62.794,69.752z M223.363,147.014
		c-1.693,4.787-8.939,13.926-16.611,23.608c-6.077,7.666-12.361,15.606-15.405,20.764c-0.438,0.743-1.206,1.151-2.01,1.151
		c-0.402,0-0.804-0.11-1.182-0.323c-1.108-0.651-1.461-2.083-0.815-3.19c3.203-5.438,9.59-13.5,15.759-21.294
		c0.268-0.341,0.542-0.676,0.81-1.022c-7.154,3.385-13.841,4.299-16.203,4.529c-11.716,10.498-24.844,13.116-35.025,13.116
		c-9.682,0-16.696-2.368-17.28-2.575c-0.122-0.037-0.195-0.128-0.305-0.177c-0.061-0.024-0.122-0.013-0.171-0.049
		c-4.651-2.935-12.126-4.153-15.293-4.555c-1.479,2.332-3.193,3.239-3.425,3.349c-6.296,2.034-10.729,2.028-13.503,0.116
		c-1.306-0.896-1.951-1.997-2.289-2.868c-1.517-0.949-2.22-2.137-2.552-3.02c-0.311-0.859-0.374-1.682-0.322-2.375
		c-1.772-1.633-2.046-4.031-1.69-6.004c-1.053-1.346-1.093-2.691-0.986-3.471c0.575-4.092,6.99-7.24,9.889-8.458
		c1.075-1.511,2.469-2.01,3.504-2.155c3.891-0.53,8.418,3.385,10.315,5.248l12.467-0.128c-2.953-5.645-4.25-10.911-4.811-14.468
		c-8.375,6.126-16.812,5.779-24.125,4.506c-8.649-1.51-14.791-4.329-16.711-5.285c-9.234,0.469-18.898-1.717-28.65-6.57
		c-5.979,4.865-13.612,7.795-21.912,7.795C15.625,143.209,0,127.59,0,108.385s15.625-34.824,34.83-34.824
		c19.199,0,34.818,15.619,34.818,34.824c0,1.126-0.061,2.223-0.155,3.324c7.587,2.113,12.769,4.184,15.284,5.298
		c7.374-8.524,27.34-10.662,32.297-11.058c14.099-13.409,29.761-5.621,34.364-2.826l6.224-3.654l-0.134-6.342
		c-2.667-2.533-3.849-7.727-4.299-10.388c-4.47-2.658-4.421-11.469-4.348-13.375c-0.269-1.583,0.693-2.618,1.297-3.062
		c0.505-0.375,1.077-0.566,1.65-0.637c-0.244-3.048-0.5-6.314-0.5-6.731c0-14.48,14.895-18.414,22.756-18.472
		c6.533,0.326,11.417,2.615,14.668,6.805c4.281,5.511,4.537,12.906,4.227,17.245c0.45,0.094,0.883,0.262,1.278,0.527
		c2.083,1.37,1.918,4.387,1.717,5.754c0.731,6.296-2.739,10.188-4.555,11.768c-0.164,2.983-0.919,5.179-1.267,6.053l-0.401,4.028
		c2.351,6.104,17.811,16.194,27.236,21.217C230.511,117.957,224.129,144.055,223.363,147.014z M34.83,138.532
		c16.636,0,30.166-13.53,30.166-30.166c0-16.629-13.53-30.166-30.166-30.166c-16.635,0-30.172,13.53-30.172,30.166
		S18.195,138.532,34.83,138.532z M219.368,143.604c0.013-0.007,0.013-0.019,0.024-0.024c1.669-7.752,3.325-23.145-4.226-25.459
		c-3.142-1.626-27.121-14.675-30.068-24.57c-0.085-0.292-0.122-0.606-0.085-0.904l0.499-4.875c0.037-0.268,0.109-0.523,0.213-0.761
		c0.007-0.006,1.023-2.266,1.023-5.633c0-0.797,0.408-1.534,1.084-1.958c0.152-0.113,4.22-2.862,3.452-8.354
		c-0.036-0.244-0.036-0.5,0.013-0.737c0.036-0.216,0.061-0.459,0.085-0.697c-0.779,0.436-1.729,0.405-2.473-0.088
		c-0.779-0.523-1.169-1.471-0.986-2.393c0.024-0.113,2.083-10.644-2.898-17.041c-2.374-3.062-6.101-4.74-11.069-4.99
		c-0.597,0.006-18,0.344-18,13.813c0.024,0.792,0.73,9.377,0.73,9.377c0.073,0.828-0.311,1.632-0.998,2.107
		c-0.646,0.456-1.474,0.536-2.204,0.243c0.121,3.998,1.011,7.873,2.289,8.135c0.975,0.201,1.711,1.004,1.839,1.991
		c0.475,3.785,1.937,8.354,3.325,9.133c0.725,0.399,1.175,1.167,1.187,1.982l0.189,8.817c0.018,0.843-0.421,1.635-1.157,2.058
		l-8.646,5.063c-0.81,0.475-1.814,0.401-2.569-0.131c-0.658-0.487-16.331-11.804-30.242,2.128c-0.399,0.39-0.922,0.64-1.482,0.664
		c-7.063,0.48-26.345,3.312-30.748,10.613c-0.63,1.047-1.964,1.431-3.047,0.871c-0.064-0.031-5.575-2.795-15.744-5.676
		c-1.392,5.931-4.29,11.271-8.293,15.613c8.674,4.03,17.189,5.894,25.322,5.357c0.411-0.018,0.877,0.067,1.27,0.28
		c0.07,0.03,6.418,3.44,15.902,5.097c7.551,1.31,15.625,1.474,23.583-6.229c0.683-0.652,1.687-0.828,2.521-0.469
		c0.864,0.365,1.431,1.205,1.431,2.143c0,0.098,0.164,8.75,5.456,18.158c16.1-7.959,36.504-8.293,43.452-8.147
		c0.664-15.856,7.849-20.825,8.165-21.044c1.06-0.719,2.503-0.426,3.24,0.646c0.7,1.06,0.426,2.49-0.634,3.221
		c-0.134,0.116-6.15,4.683-6.15,19.607c0,0.646-0.255,1.248-0.73,1.692c-0.463,0.438-1.156,0.646-1.729,0.634
		c-0.268-0.024-26.609-1.479-44.877,8.263c-0.42,0.408-0.932,0.7-1.528,0.713l-17.454,0.183c-0.773,0.006-1.276-0.263-1.714-0.731
		c-2.195-2.319-5.568-4.73-7.015-4.572c-0.101,0.012-0.256,0.043-0.487,0.48c-0.255,0.5-0.685,0.896-1.203,1.097
		c-3.678,1.455-7.456,3.934-7.706,5.035c0.037,0,0.131,0.134,0.387,0.329c0.84,0.633,1.154,1.76,0.749,2.734
		c-0.131,0.328-0.736,2.082,0.484,2.624c0.563,0.256,1.011,0.725,1.224,1.315c0.216,0.591,0.186,1.236-0.082,1.803
		c-0.38,0.932,0.387,1.431,1.117,1.753c0.786,0.359,1.315,1.127,1.37,1.985c0,0,0.113,0.433,0.7,0.804
		c0.716,0.444,3.023,1.261,8.979-0.627c-0.1,0,0.972-0.719,1.815-2.527c0.399-0.896,1.279-1.431,2.298-1.346
		c0.475,0.043,11.552,1.023,18.529,5.237c1.431,0.463,27.688,8.683,48.104-10.151c0.39-0.371,0.913-0.591,1.461-0.621
		C187.644,166.597,211.805,165.051,219.368,143.604z M105.549,123.127c-1.083,0.688-1.4,2.131-0.697,3.215
		c0.685,1.09,2.134,1.395,3.224,0.712c16.429-10.51,26.933,1.267,27.383,1.778c0.457,0.529,1.108,0.804,1.76,0.804
		c0.536,0,1.078-0.188,1.51-0.561c0.969-0.84,1.097-2.302,0.256-3.275C138.845,125.635,125.492,110.395,105.549,123.127z
		 M204.803,127.48c-1.218,0.39-1.9,1.711-1.486,2.94c0.049,0.165,5.42,17.142-6.552,24.631c-1.084,0.676-1.419,2.113-0.73,3.209
		c0.438,0.706,1.193,1.09,1.973,1.09c0.414,0,0.853-0.109,1.224-0.353c12.038-7.521,10.82-22.932,8.495-30.02
		C207.335,127.742,206.027,127.072,204.803,127.48z M44.874,108.366c0,5.548-4.506,10.054-10.044,10.054
		c-5.55,0-10.044-4.519-10.044-10.054s4.506-10.044,10.044-10.044S44.874,102.831,44.874,108.366z M40.219,108.366
		c0-2.975-2.421-5.392-5.389-5.392c-2.98,0-5.392,2.423-5.392,5.392c0,2.978,2.424,5.396,5.392,5.396
		C37.805,113.768,40.219,111.344,40.219,108.366z M29.624,94.443v-3.666l1.117-1.142l3.279,4.808h1.489h1.485l-4.646-6.467
		l4.351-4.451h-1.44h-1.452l-4.177,4.521v-4.521h-1.154H27.34v10.918h1.148H29.624z M43.404,86.363h2.009v7.651
		c0,1.285-0.32,2.219-0.938,2.829c-0.648,0.605-1.625,0.91-2.959,0.91c-1.105,0-1.973-0.21-2.627-0.64
		c-0.648-0.432-0.99-1.022-1.035-1.778h2.308c0.024,0.274,0.143,0.481,0.387,0.603c0.231,0.134,0.6,0.188,1.084,0.188
		c0.612,0,1.035-0.137,1.303-0.429c0.255-0.29,0.386-0.767,0.386-1.428v-0.998l-0.161,0.262c-0.472,0.648-1.154,0.971-2.019,0.971
		c-1.062,0-1.915-0.387-2.551-1.132c-0.648-0.749-0.965-1.748-0.965-2.987c0-1.272,0.317-2.295,0.935-3.068
		c0.636-0.773,1.458-1.154,2.481-1.154c0.904,0,1.607,0.326,2.107,0.986c0.101,0.125,0.18,0.262,0.256,0.399V86.363L43.404,86.363z
		 M43.349,90.354c0-0.749-0.152-1.324-0.469-1.748c-0.323-0.411-0.755-0.63-1.309-0.63s-0.98,0.213-1.297,0.637
		c-0.311,0.423-0.463,1.011-0.463,1.766c0,0.733,0.152,1.309,0.463,1.727c0.316,0.411,0.743,0.624,1.291,0.624
		c0.56,0,0.992-0.213,1.315-0.63C43.197,91.676,43.349,91.088,43.349,90.354z"/>
</g>
<g>
</g>
<g>
</g>
<g>
</g>
<g>
</g>
<g>
</g>
<g>
</g>
<g>
</g>
<g>
</g>
<g>
</g>
<g>
</g>
<g>
</g>
<g>
</g>
<g>
</g>
<g>
</g>
<g>
</g>
</svg>
